<?xml version="1.0" encoding="UTF-8" standalone="no"?>
<svg
   version="1.1"
   width="1400"
   height="1400"
   id="svg700"
   sodipodi:docname="large.svg"
   inkscape:version="1.1.1 (3bf5ae0d25, 2021-09-20)"
   inkscape:export-filename="/home/matteo/Downloads/logo/large.png"
   inkscape:export-xdpi="35.110001"
   inkscape:export-ydpi="35.110001"
   xmlns:inkscape="http://www.inkscape.org/namespaces/inkscape"
   xmlns:sodipodi="http://sodipodi.sourceforge.net/DTD/sodipodi-0.dtd"
   xmlns:xlink="http://www.w3.org/1999/xlink"
   xmlns="http://www.w3.org/2000/svg"
   xmlns:svg="http://www.w3.org/2000/svg">
  <defs
     id="defs704" />
  <sodipodi:namedview
     id="namedview702"
     pagecolor="#ffffff"
     bordercolor="#666666"
     borderopacity="1.0"
     inkscape:pageshadow="2"
     inkscape:pageopacity="0"
     inkscape:pagecheckerboard="true"
     showgrid="false"
     inkscape:zoom="0.5299731"
     inkscape:cx="402.85064"
     inkscape:cy="652.86332"
     inkscape:window-width="1706"
     inkscape:window-height="898"
     inkscape:window-x="0"
     inkscape:window-y="0"
     inkscape:window-maximized="1"
     inkscape:current-layer="layer1"
     width="1400px" />
  <g
     inkscape:groupmode="layer"
     id="layer3"
     inkscape:label="border">
    <path
       style="display:inline;fill:none;stroke:#52524c;stroke-width:8;stroke-linecap:round;stroke-linejoin:round;stroke-miterlimit:4;stroke-dasharray:none;stroke-opacity:1"
       d="m 524.6605,538.53549 -339.249,167.315 68.291,32.52 -79.72,38.765 -70.136,87.126 145.46,69.266 -60.452,88.72501 185.07,88.128 122.095,-59.371 207.102,98.62 204.945,-99.658 123.379,58.753 183.142,-89.057 -61.41,-88.88601 142.976,-69.524 -70.136,-86.773 -81.51,-38.814 66.638,-32.404 -265.784,-131.606 -70.022,-33.343"
       id="path27134" />
  </g>
  <g
     inkscape:groupmode="layer"
     id="layer1"
     inkscape:label="shape"
     style="display:inline">
    <use
       x="0"
       y="0"
       xlink:href="#path7653"
       id="use7701"
       transform="translate(13.288999,-19.503996)"
       width="100%"
       height="100%"
       style="stroke:none;stroke-width:2;stroke-miterlimit:4;stroke-dasharray:none" />
    <use
       x="0"
       y="0"
       xlink:href="#path7655"
       id="use7703"
       transform="translate(13.288999,-19.503996)"
       width="100%"
       height="100%"
       style="stroke:none;stroke-width:2;stroke-miterlimit:4;stroke-dasharray:none" />
    <use
       x="0"
       y="0"
       xlink:href="#use7701"
       id="use7707"
       transform="translate(13.289001,-19.505004)"
       width="100%"
       height="100%"
       style="stroke:none;stroke-width:2;stroke-miterlimit:4;stroke-dasharray:none" />
    <use
       x="0"
       y="0"
       xlink:href="#use7703"
       id="use7709"
       transform="translate(13.289001,-19.505004)"
       width="100%"
       height="100%"
       style="stroke:none;stroke-width:2;stroke-miterlimit:4;stroke-dasharray:none" />
    <path
       style="fill:#f5f5e4;fill-opacity:1;stroke:#f5f5e4;stroke-width:2;stroke-linecap:butt;stroke-linejoin:round;stroke-miterlimit:4;stroke-dasharray:none;stroke-opacity:1"
       d="m 215.2925,1034.8425 13.29,-6.463 125.483,59.754 -6.58,9.658 z"
       id="path7653" />
    <use
       x="0"
       y="0"
       xlink:href="#use7707"
       id="use7713"
       transform="translate(13.289001,-19.504004)"
       width="100%"
       height="100%"
       style="stroke:none;stroke-width:2;stroke-miterlimit:4;stroke-dasharray:none" />
    <use
       x="0"
       y="0"
       xlink:href="#use7709"
       id="use7715"
       transform="translate(13.289001,-19.504004)"
       width="100%"
       height="100%"
       style="stroke:none;stroke-width:2;stroke-miterlimit:4;stroke-dasharray:none" />
    <path
       style="fill:#cfcfc0;fill-opacity:1;stroke:#cfcfc0;stroke-width:2;stroke-linecap:butt;stroke-linejoin:round;stroke-miterlimit:4;stroke-dasharray:none;stroke-opacity:1"
       d="m 228.5825,1028.3795 v -13.042 l 132.193,62.949 -6.71,9.847 z"
       id="path7655" />
    <use
       x="0"
       y="0"
       xlink:href="#use7713"
       id="use7719"
       transform="translate(13.290001,-19.505004)"
       width="100%"
       height="100%"
       style="stroke:none;stroke-width:2;stroke-miterlimit:4;stroke-dasharray:none" />
    <use
       x="0"
       y="0"
       xlink:href="#use7715"
       id="use7721"
       transform="translate(13.290001,-19.505004)"
       width="100%"
       height="100%"
       style="stroke:none;stroke-width:2;stroke-miterlimit:4;stroke-dasharray:none" />
    <use
       x="0"
       y="0"
       xlink:href="#use7719"
       id="use7725"
       transform="translate(13.289001,-19.504004)"
       width="100%"
       height="100%"
       style="stroke:none;stroke-width:2;stroke-miterlimit:4;stroke-dasharray:none" />
    <use
       x="0"
       y="0"
       xlink:href="#use7721"
       id="use7727"
       transform="translate(13.289001,-19.504004)"
       width="100%"
       height="100%"
       style="stroke:none;stroke-width:2;stroke-miterlimit:4;stroke-dasharray:none" />
    <use
       x="0"
       y="0"
       xlink:href="#use7725"
       id="use7731"
       transform="translate(13.289001,-19.505004)"
       width="100%"
       height="100%"
       style="stroke:none;stroke-width:2;stroke-miterlimit:4;stroke-dasharray:none" />
    <use
       x="0"
       y="0"
       xlink:href="#use7727"
       id="use7733"
       transform="translate(13.289001,-19.505004)"
       width="100%"
       height="100%"
       style="stroke:none;stroke-width:2;stroke-miterlimit:4;stroke-dasharray:none" />
    <use
       x="0"
       y="0"
       xlink:href="#use7731"
       id="use7737"
       transform="translate(13.289001,-19.504004)"
       width="100%"
       height="100%"
       style="stroke:none;stroke-width:2;stroke-miterlimit:4;stroke-dasharray:none" />
    <use
       x="0"
       y="0"
       xlink:href="#use7733"
       id="use7739"
       transform="translate(13.289001,-19.504004)"
       width="100%"
       height="100%"
       style="stroke:none;stroke-width:2;stroke-miterlimit:4;stroke-dasharray:none" />
    <use
       x="0"
       y="0"
       xlink:href="#use7737"
       id="use7743"
       transform="translate(13.289001,-19.505004)"
       width="100%"
       height="100%"
       style="stroke:none;stroke-width:2;stroke-miterlimit:4;stroke-dasharray:none" />
    <use
       x="0"
       y="0"
       xlink:href="#use7739"
       id="use7745"
       transform="translate(13.289001,-19.505004)"
       width="100%"
       height="100%"
       style="stroke:none;stroke-width:2;stroke-miterlimit:4;stroke-dasharray:none" />
    <use
       x="0"
       y="0"
       xlink:href="#use7743"
       id="use7749"
       transform="translate(13.290001,-19.504004)"
       width="100%"
       height="100%"
       style="stroke:none;stroke-width:2;stroke-miterlimit:4;stroke-dasharray:none" />
    <use
       x="0"
       y="0"
       xlink:href="#use7745"
       id="use7751"
       transform="translate(13.290001,-19.504004)"
       width="100%"
       height="100%"
       style="stroke:none;stroke-width:2;stroke-miterlimit:4;stroke-dasharray:none" />
    <use
       x="0"
       y="0"
       xlink:href="#use7749"
       id="use7755"
       transform="translate(13.289001,-19.505004)"
       width="100%"
       height="100%"
       style="stroke:none;stroke-width:2;stroke-miterlimit:4;stroke-dasharray:none" />
    <use
       x="0"
       y="0"
       xlink:href="#use7751"
       id="use7757"
       transform="translate(13.289001,-19.505004)"
       width="100%"
       height="100%"
       style="stroke:none;stroke-width:2;stroke-miterlimit:4;stroke-dasharray:none" />
    <use
       x="0"
       y="0"
       xlink:href="#use7701"
       id="use7761"
       transform="translate(132.893,-195.046)"
       width="100%"
       height="100%"
       style="stroke:none;stroke-width:2;stroke-miterlimit:4;stroke-dasharray:none" />
    <use
       x="0"
       y="0"
       xlink:href="#use7703"
       id="use7763"
       transform="translate(132.893,-195.046)"
       width="100%"
       height="100%"
       style="stroke:none;stroke-width:2;stroke-miterlimit:4;stroke-dasharray:none" />
    <use
       x="0"
       y="0"
       xlink:href="#use7707"
       id="use7767"
       transform="translate(132.893,-195.046)"
       width="100%"
       height="100%"
       style="stroke:none;stroke-width:2;stroke-miterlimit:4;stroke-dasharray:none" />
    <use
       x="0"
       y="0"
       xlink:href="#use7709"
       id="use7769"
       transform="translate(132.893,-195.046)"
       width="100%"
       height="100%"
       style="stroke:none;stroke-width:2;stroke-miterlimit:4;stroke-dasharray:none" />
    <use
       x="0"
       y="0"
       xlink:href="#use7713"
       id="use7773"
       transform="translate(132.893,-195.046)"
       width="100%"
       height="100%"
       style="stroke:none;stroke-width:2;stroke-miterlimit:4;stroke-dasharray:none" />
    <use
       x="0"
       y="0"
       xlink:href="#use7715"
       id="use7775"
       transform="translate(132.893,-195.046)"
       width="100%"
       height="100%"
       style="stroke:none;stroke-width:2;stroke-miterlimit:4;stroke-dasharray:none" />
    <use
       x="0"
       y="0"
       xlink:href="#use7719"
       id="use7779"
       transform="translate(132.893,-195.046)"
       width="100%"
       height="100%"
       style="stroke:none;stroke-width:2;stroke-miterlimit:4;stroke-dasharray:none" />
    <use
       x="0"
       y="0"
       xlink:href="#use7721"
       id="use7781"
       transform="translate(132.893,-195.046)"
       width="100%"
       height="100%"
       style="stroke:none;stroke-width:2;stroke-miterlimit:4;stroke-dasharray:none" />
    <use
       x="0"
       y="0"
       xlink:href="#use7725"
       id="use7785"
       transform="translate(132.893,-195.046)"
       width="100%"
       height="100%"
       style="stroke:none;stroke-width:2;stroke-miterlimit:4;stroke-dasharray:none" />
    <use
       x="0"
       y="0"
       xlink:href="#use7727"
       id="use7787"
       transform="translate(132.893,-195.046)"
       width="100%"
       height="100%"
       style="stroke:none;stroke-width:2;stroke-miterlimit:4;stroke-dasharray:none" />
    <use
       x="0"
       y="0"
       xlink:href="#use7731"
       id="use7791"
       transform="translate(132.893,-195.046)"
       width="100%"
       height="100%"
       style="stroke:none;stroke-width:2;stroke-miterlimit:4;stroke-dasharray:none" />
    <use
       x="0"
       y="0"
       xlink:href="#use7733"
       id="use7793"
       transform="translate(132.893,-195.046)"
       width="100%"
       height="100%"
       style="stroke:none;stroke-width:2;stroke-miterlimit:4;stroke-dasharray:none" />
    <use
       x="0"
       y="0"
       xlink:href="#use7737"
       id="use7797"
       transform="translate(132.893,-195.046)"
       width="100%"
       height="100%"
       style="stroke:none;stroke-width:2;stroke-miterlimit:4;stroke-dasharray:none" />
    <use
       x="0"
       y="0"
       xlink:href="#use7739"
       id="use7799"
       transform="translate(132.893,-195.046)"
       width="100%"
       height="100%"
       style="stroke:none;stroke-width:2;stroke-miterlimit:4;stroke-dasharray:none" />
    <use
       x="0"
       y="0"
       xlink:href="#use7743"
       id="use7803"
       transform="translate(132.893,-195.046)"
       width="100%"
       height="100%"
       style="stroke:none;stroke-width:2;stroke-miterlimit:4;stroke-dasharray:none" />
    <use
       x="0"
       y="0"
       xlink:href="#use7745"
       id="use7805"
       transform="translate(132.893,-195.046)"
       width="100%"
       height="100%"
       style="stroke:none;stroke-width:2;stroke-miterlimit:4;stroke-dasharray:none" />
    <use
       x="0"
       y="0"
       xlink:href="#use7749"
       id="use7809"
       transform="translate(132.893,-195.046)"
       width="100%"
       height="100%"
       style="stroke:none;stroke-width:2;stroke-miterlimit:4;stroke-dasharray:none" />
    <use
       x="0"
       y="0"
       xlink:href="#use8977"
       id="use9001"
       transform="translate(-53.716001,-77.749996)"
       width="100%"
       height="100%"
       style="stroke:none;stroke-width:2;stroke-miterlimit:4;stroke-dasharray:none" />
    <use
       x="0"
       y="0"
       xlink:href="#use8979"
       id="use9003"
       transform="translate(-53.716001,-77.749996)"
       width="100%"
       height="100%"
       style="stroke:none;stroke-width:2;stroke-miterlimit:4;stroke-dasharray:none" />
    <use
       x="0"
       y="0"
       xlink:href="#use8983"
       id="use9007"
       transform="translate(-53.716001,-77.749996)"
       width="100%"
       height="100%"
       style="stroke:none;stroke-width:2;stroke-miterlimit:4;stroke-dasharray:none" />
    <use
       x="0"
       y="0"
       xlink:href="#use8985"
       id="use9009"
       transform="translate(-53.716001,-77.749996)"
       width="100%"
       height="100%"
       style="stroke:none;stroke-width:2;stroke-miterlimit:4;stroke-dasharray:none" />
    <use
       x="0"
       y="0"
       xlink:href="#use8989"
       id="use9013"
       transform="translate(-53.717001,-77.747996)"
       width="100%"
       height="100%"
       style="stroke:none;stroke-width:2;stroke-miterlimit:4;stroke-dasharray:none" />
    <use
       x="0"
       y="0"
       xlink:href="#use8991"
       id="use9015"
       transform="translate(-53.717001,-77.747996)"
       width="100%"
       height="100%"
       style="stroke:none;stroke-width:2;stroke-miterlimit:4;stroke-dasharray:none" />
    <use
       x="0"
       y="0"
       xlink:href="#use8995"
       id="use9019"
       transform="translate(-53.717001,-77.747996)"
       width="100%"
       height="100%"
       style="stroke:none;stroke-width:2;stroke-miterlimit:4;stroke-dasharray:none" />
    <use
       x="0"
       y="0"
       xlink:href="#use8997"
       id="use9021"
       transform="translate(-53.717001,-77.747996)"
       width="100%"
       height="100%"
       style="stroke:none;stroke-width:2;stroke-miterlimit:4;stroke-dasharray:none" />
    <use
       x="0"
       y="0"
       xlink:href="#use9001"
       id="use9025"
       transform="translate(-53.716999,-77.748)"
       width="100%"
       height="100%"
       style="stroke:none;stroke-width:2;stroke-miterlimit:4;stroke-dasharray:none" />
    <use
       x="0"
       y="0"
       xlink:href="#use9003"
       id="use9027"
       transform="translate(-53.716999,-77.748)"
       width="100%"
       height="100%"
       style="stroke:none;stroke-width:2;stroke-miterlimit:4;stroke-dasharray:none" />
    <use
       x="0"
       y="0"
       xlink:href="#use9007"
       id="use9031"
       transform="translate(-53.716999,-77.748)"
       width="100%"
       height="100%"
       style="stroke:none;stroke-width:2;stroke-miterlimit:4;stroke-dasharray:none" />
    <use
       x="0"
       y="0"
       xlink:href="#use9009"
       id="use9033"
       transform="translate(-53.716999,-77.748)"
       width="100%"
       height="100%"
       style="stroke:none;stroke-width:2;stroke-miterlimit:4;stroke-dasharray:none" />
    <use
       x="0"
       y="0"
       xlink:href="#use9013"
       id="use9037"
       transform="translate(-53.716999,-77.748)"
       width="100%"
       height="100%"
       style="stroke:none;stroke-width:2;stroke-miterlimit:4;stroke-dasharray:none" />
    <use
       x="0"
       y="0"
       xlink:href="#use9015"
       id="use9039"
       transform="translate(-53.716999,-77.748)"
       width="100%"
       height="100%"
       style="stroke:none;stroke-width:2;stroke-miterlimit:4;stroke-dasharray:none" />
    <use
       x="0"
       y="0"
       xlink:href="#use9019"
       id="use9043"
       transform="translate(-53.716999,-77.748)"
       width="100%"
       height="100%"
       style="stroke:none;stroke-width:2;stroke-miterlimit:4;stroke-dasharray:none" />
    <use
       x="0"
       y="0"
       xlink:href="#use9021"
       id="use9045"
       transform="translate(-53.716999,-77.748)"
       width="100%"
       height="100%"
       style="stroke:none;stroke-width:2;stroke-miterlimit:4;stroke-dasharray:none" />
    <use
       x="0"
       y="0"
       xlink:href="#use9025"
       id="use9049"
       transform="translate(-53.716999,-77.748)"
       width="100%"
       height="100%"
       style="stroke:none;stroke-width:2;stroke-miterlimit:4;stroke-dasharray:none" />
    <use
       x="0"
       y="0"
       xlink:href="#use9027"
       id="use9051"
       transform="translate(-53.716999,-77.748)"
       width="100%"
       height="100%"
       style="stroke:none;stroke-width:2;stroke-miterlimit:4;stroke-dasharray:none" />
    <use
       x="0"
       y="0"
       xlink:href="#use9031"
       id="use9055"
       transform="translate(-53.716999,-77.748)"
       width="100%"
       height="100%"
       style="stroke:none;stroke-width:2;stroke-miterlimit:4;stroke-dasharray:none" />
    <use
       x="0"
       y="0"
       xlink:href="#use9033"
       id="use9057"
       transform="translate(-53.716999,-77.748)"
       width="100%"
       height="100%"
       style="stroke:none;stroke-width:2;stroke-miterlimit:4;stroke-dasharray:none" />
    <use
       x="0"
       y="0"
       xlink:href="#use9055"
       id="use9061"
       transform="translate(-13.428999,-19.437004)"
       width="100%"
       height="100%"
       style="stroke:none;stroke-width:2;stroke-miterlimit:4;stroke-dasharray:none" />
    <use
       x="0"
       y="0"
       xlink:href="#path8803"
       id="use8955"
       transform="translate(-13.428001,-19.436996)"
       width="100%"
       height="100%"
       style="stroke:none;stroke-width:2;stroke-miterlimit:4;stroke-dasharray:none" />
    <use
       x="0"
       y="0"
       xlink:href="#use8953"
       id="use8959"
       transform="translate(-13.429001,-19.437996)"
       width="100%"
       height="100%"
       style="stroke:none;stroke-width:2;stroke-miterlimit:4;stroke-dasharray:none" />
    <use
       x="0"
       y="0"
       xlink:href="#use8955"
       id="use8961"
       transform="translate(-13.428999,-19.438004)"
       width="100%"
       height="100%"
       style="stroke:none;stroke-width:2;stroke-miterlimit:4;stroke-dasharray:none" />
    <use
       x="0"
       y="0"
       xlink:href="#use8953"
       id="use8965"
       transform="translate(-26.859001,-38.873996)"
       width="100%"
       height="100%"
       style="stroke:none;stroke-width:2;stroke-miterlimit:4;stroke-dasharray:none" />
    <use
       x="0"
       y="0"
       xlink:href="#use8955"
       id="use8967"
       transform="translate(-26.858999,-38.874004)"
       width="100%"
       height="100%"
       style="stroke:none;stroke-width:2;stroke-miterlimit:4;stroke-dasharray:none" />
    <use
       x="0"
       y="0"
       xlink:href="#use8959"
       id="use8971"
       transform="translate(-26.858999,-38.874004)"
       width="100%"
       height="100%"
       style="stroke:none;stroke-width:2;stroke-miterlimit:4;stroke-dasharray:none" />
    <use
       x="0"
       y="0"
       xlink:href="#use8961"
       id="use8973"
       transform="translate(-26.858999,-38.874004)"
       width="100%"
       height="100%"
       style="stroke:none;stroke-width:2;stroke-miterlimit:4;stroke-dasharray:none" />
    <use
       x="0"
       y="0"
       xlink:href="#use8965"
       id="use8977"
       transform="translate(-26.857999,-38.875004)"
       width="100%"
       height="100%"
       style="stroke:none;stroke-width:2;stroke-miterlimit:4;stroke-dasharray:none" />
    <use
       x="0"
       y="0"
       xlink:href="#use8967"
       id="use8979"
       transform="translate(-26.857999,-38.875004)"
       width="100%"
       height="100%"
       style="stroke:none;stroke-width:2;stroke-miterlimit:4;stroke-dasharray:none" />
    <use
       x="0"
       y="0"
       xlink:href="#use8971"
       id="use8983"
       transform="translate(-26.857999,-38.875004)"
       width="100%"
       height="100%"
       style="stroke:none;stroke-width:2;stroke-miterlimit:4;stroke-dasharray:none" />
    <use
       x="0"
       y="0"
       xlink:href="#use8973"
       id="use8985"
       transform="translate(-26.857999,-38.875004)"
       width="100%"
       height="100%"
       style="stroke:none;stroke-width:2;stroke-miterlimit:4;stroke-dasharray:none" />
    <use
       x="0"
       y="0"
       xlink:href="#use8965"
       id="use8989"
       transform="translate(-53.715999,-77.75)"
       width="100%"
       height="100%"
       style="stroke:none;stroke-width:2;stroke-miterlimit:4;stroke-dasharray:none" />
    <use
       x="0"
       y="0"
       xlink:href="#use8967"
       id="use8991"
       transform="translate(-53.715999,-77.75)"
       width="100%"
       height="100%"
       style="stroke:none;stroke-width:2;stroke-miterlimit:4;stroke-dasharray:none" />
    <use
       x="0"
       y="0"
       xlink:href="#use8971"
       id="use8995"
       transform="translate(-53.715999,-77.75)"
       width="100%"
       height="100%"
       style="stroke:none;stroke-width:2;stroke-miterlimit:4;stroke-dasharray:none" />
    <use
       x="0"
       y="0"
       xlink:href="#use8973"
       id="use8997"
       transform="translate(-53.715999,-77.75)"
       width="100%"
       height="100%"
       style="stroke:none;stroke-width:2;stroke-miterlimit:4;stroke-dasharray:none" />
    <use
       x="0"
       y="0"
       xlink:href="#path8585"
       id="use8953"
       transform="translate(-13.428001,-19.436996)"
       width="100%"
       height="100%"
       style="stroke:none;stroke-width:2;stroke-miterlimit:4;stroke-dasharray:none" />
    <path
       style="fill:#f5f5e4;fill-opacity:1;stroke:#f5f5e4;stroke-width:2;stroke-linecap:butt;stroke-linejoin:round;stroke-miterlimit:4;stroke-dasharray:none;stroke-opacity:1"
       d="m 1050.9255,1086.3275 124.07,-60.332 13.429,6.395 -130.815,63.611 z"
       id="path8585" />
    <path
       style="fill:#adada1;fill-opacity:1;stroke:#adada1;stroke-width:2;stroke-linecap:butt;stroke-linejoin:round;stroke-miterlimit:4;stroke-dasharray:none;stroke-opacity:1"
       d="m 1174.9955,1012.9535 v 13.042 l -124.07,60.332 -6.745,-9.763 z"
       id="path8803" />
    <path
       style="fill:#cfcfc0;fill-opacity:1;stroke:#cfcfc0;stroke-width:2;stroke-linecap:butt;stroke-linejoin:round;stroke-miterlimit:4;stroke-dasharray:none;stroke-opacity:1"
       d="m 185.4115,705.85049 268.582,-132.951 13.43,6.394 -47.966,23.325 -36.476,45.312 -86.262,41.946 -36.476,45.313 -6.541,3.181 z"
       id="path9098"
       sodipodi:nodetypes="ccccccccc" />
    <path
       style="fill:#cfcfc0;fill-opacity:1;stroke:#cfcfc0;stroke-width:2;stroke-linecap:butt;stroke-linejoin:round;stroke-miterlimit:4;stroke-dasharray:none;stroke-opacity:1"
       d="m 419.4575,602.61849 -70.136,87.126 49.896,23.759 55.421,-81.342 13.29,-6.462 z"
       id="path9530" />
    <path
       style="fill:#f5f5e4;fill-opacity:1;stroke:#f5f5e4;stroke-width:2;stroke-linecap:butt;stroke-linejoin:round;stroke-miterlimit:4;stroke-dasharray:none;stroke-opacity:1"
       d="m 419.4575,602.61849 48.471,23.081 -13.29,6.462 185.071,88.129 13.289,-6.462 48.471,23.081 47.965,-23.324 13.43,6.394 183.142,-89.056 -13.429,-6.395 47.965,-23.324 -47.807,-22.765 12.626,-6.779 -70.022,-33.343 v 61.703 l -174.421,84.815 -176.258,-83.932 v -62.368 l -70.667,34.364 13.43,6.394 z"
       id="path1143"
       sodipodi:nodetypes="ccccccccccccccccccccc" />
    <path
       style="fill:#f5f5e4;fill-opacity:1;stroke:#f5f5e4;stroke-width:2;stroke-linecap:butt;stroke-linejoin:round;stroke-miterlimit:4;stroke-dasharray:none;stroke-opacity:1"
       d="m 382.9815,647.93049 -86.262,41.946 89.544,42.64 12.954,-19.013 -49.896,-23.759 z"
       id="path9631" />
    <path
       style="fill:#cfcfc0;fill-opacity:1;stroke:#cfcfc0;stroke-width:2;stroke-linecap:butt;stroke-linejoin:round;stroke-miterlimit:4;stroke-dasharray:none;stroke-opacity:1"
       d="m 296.7195,689.87649 -70.135,87.126 97.677,46.513 62.002,-90.999 z"
       id="path9699" />
    <path
       style="fill:#f5f5e4;fill-opacity:1;stroke:#f5f5e4;stroke-width:2;stroke-linecap:butt;stroke-linejoin:round;stroke-miterlimit:4;stroke-dasharray:none;stroke-opacity:1"
       d="m 260.2435,735.18949 -86.261,41.946 137.325,65.393 12.954,-19.013 -97.677,-46.513 z"
       id="path9767" />
    <path
       style="fill:#cfcfc0;fill-opacity:1;stroke:#cfcfc0;stroke-width:2;stroke-linecap:butt;stroke-linejoin:round;stroke-miterlimit:4;stroke-dasharray:none;stroke-opacity:1"
       d="m 173.9825,777.13549 137.325,65.393 -62.001,90.999 -145.46,-69.266 z"
       id="path10338" />
    <path
       style="fill:#adada1;fill-opacity:1;stroke:#adada1;stroke-width:2;stroke-linecap:butt;stroke-linejoin:round;stroke-miterlimit:4;stroke-dasharray:none;stroke-opacity:1"
       d="m 1226.0175,774.48449 70.136,86.773 -142.976,69.524 -62.512,-90.479 z"
       id="path12401" />
    <path
       style="fill:#adada1;fill-opacity:1;stroke:#adada1;stroke-width:2;stroke-linecap:butt;stroke-linejoin:round;stroke-miterlimit:4;stroke-dasharray:none;stroke-opacity:1"
       d="m 945.3615,571.66049 265.784,131.606 -66.638,32.404 -4.18,-1.991 -37.047,-45.835 -85.69,-40.805 -37.048,-45.835 -47.807,-22.765 z"
       id="path12978"
       sodipodi:nodetypes="ccccccccc" />
    <path
       style="fill:#f5f5e4;fill-opacity:1;stroke:#f5f5e4;stroke-width:2;stroke-linecap:butt;stroke-linejoin:round;stroke-miterlimit:4;stroke-dasharray:none;stroke-opacity:1"
       d="m 1140.3275,733.67949 85.69,40.805 -135.352,65.818 -13.16,-19.047 95.91,-46.638 z"
       id="path12333" />
    <path
       style="fill:#cfcfc0;fill-opacity:1;stroke:#cfcfc0;stroke-width:2;stroke-linecap:butt;stroke-linejoin:round;stroke-miterlimit:4;stroke-dasharray:none;stroke-opacity:1"
       d="m 652.9985,713.82849 48.471,23.081 0.367,120.699 -83.722,-39.868 z"
       id="path5909" />
    <path
       style="fill:#adada1;fill-opacity:1;stroke:#adada1;stroke-width:2;stroke-linecap:butt;stroke-linejoin:round;stroke-miterlimit:4;stroke-dasharray:none;stroke-opacity:1"
       d="m 749.4345,713.58549 35.252,103.735 -82.85,40.288 -0.367,-120.699 z"
       id="path6010"
       sodipodi:nodetypes="ccccc" />
    <path
       style="fill:#f5f5e4;fill-opacity:1;stroke:#f5f5e4;stroke-width:2;stroke-linecap:butt;stroke-linejoin:round;stroke-miterlimit:4;stroke-dasharray:none;stroke-opacity:1"
       d="m 784.6865,817.32049 26.438,12.59 -109.013,53.01 -110.161,-52.458 26.164,-12.722 83.722,39.868 z"
       id="path6434" />
    <path
       style="fill:#cfcfc0;fill-opacity:1;stroke:#cfcfc0;stroke-width:2;stroke-linecap:butt;stroke-linejoin:round;stroke-miterlimit:4;stroke-dasharray:none;stroke-opacity:1"
       d="m 702.1115,882.92049 0.367,120.69901 -145.412,-69.24401 34.884,-103.913 z"
       id="path6502" />
    <path
       style="fill:#adada1;fill-opacity:1;stroke:#adada1;stroke-width:2;stroke-linecap:butt;stroke-linejoin:round;stroke-miterlimit:4;stroke-dasharray:none;stroke-opacity:1"
       d="m 702.1115,882.92049 109.013,-53.01 35.252,103.736 -143.898,69.97301 z"
       id="path6570" />
    <path
       style="fill:#f5f5e4;fill-opacity:1;stroke:#f5f5e4;stroke-width:2;stroke-linecap:butt;stroke-linejoin:round;stroke-miterlimit:4;stroke-dasharray:none;stroke-opacity:1"
       d="m 557.0665,934.37549 -26.163,12.722 171.851,81.83401 170.06,-82.69601 -26.438,-12.589 -143.898,69.97301 z"
       id="path6638" />
    <path
       style="fill:#cfcfc0;fill-opacity:1;stroke:#cfcfc0;stroke-width:2;stroke-linecap:butt;stroke-linejoin:round;stroke-miterlimit:4;stroke-dasharray:none;stroke-opacity:1"
       d="m 703.1215,1149.6295 -0.367,-120.698 -171.851,-81.83401 -34.884,103.91201 z"
       id="path6706" />
    <path
       style="fill:#adada1;fill-opacity:1;stroke:#adada1;stroke-width:2;stroke-linecap:butt;stroke-linejoin:round;stroke-miterlimit:4;stroke-dasharray:none;stroke-opacity:1"
       d="m 872.8145,946.23549 35.252,103.73601 -204.945,99.658 -0.367,-120.698 z"
       id="path6774" />
    <path
       style="fill:#f5f5e4;fill-opacity:1;stroke:#f5f5e4;stroke-width:2;stroke-linecap:butt;stroke-linejoin:round;stroke-miterlimit:4;stroke-dasharray:none;stroke-opacity:1"
       d="m 613.2705,707.70049 -265.785,390.09101 26.439,12.589 265.785,-390.09001 z"
       id="path6875" />
    <path
       style="fill:#f5f5e4;fill-opacity:1;stroke:#f5f5e4;stroke-width:2;stroke-linecap:butt;stroke-linejoin:round;stroke-miterlimit:4;stroke-dasharray:none;stroke-opacity:1"
       d="m 762.8645,719.97949 26.163,-12.722 268.582,388.74401 -26.164,12.723 z"
       id="path6943" />
    <use
       x="0"
       y="0"
       xlink:href="#use9057"
       id="use9063"
       transform="translate(-13.428999,-19.437004)"
       width="100%"
       height="100%"
       style="stroke:none;stroke-width:2;stroke-miterlimit:4;stroke-dasharray:none" />
    <path
       style="display:inline;fill:none;stroke:#593f21;stroke-width:8;stroke-linecap:butt;stroke-linejoin:round;stroke-miterlimit:4;stroke-dasharray:none;stroke-opacity:1"
       d="m 652.0805,247.87049 -174.422,84.816 47.002,123.302 v 144.915 l 176.258,83.932 174.421,-84.815 v -144.916 l 47.002,-78.538 -104.857,50.988 -118.403,-56.382 z"
       id="path25582" />
    <path
       style="fill:#f5f5e4;fill-opacity:1;stroke:#f5f5e4;stroke-width:2;stroke-linecap:butt;stroke-linejoin:round;stroke-miterlimit:4;stroke-dasharray:none;stroke-opacity:1"
       d="m 1214.5875,1019.6675 -268.581,-388.74401 -26.164,12.722 268.583,388.74501 z"
       id="path7110" />
    <path
       style="fill:#f5f5e4;fill-opacity:1;stroke:#f5f5e4;stroke-width:2;stroke-linecap:butt;stroke-linejoin:round;stroke-miterlimit:4;stroke-dasharray:none;stroke-opacity:1"
       d="m 188.8545,1022.2525 265.784,-390.09101 26.439,12.59 -265.785,390.09101 z"
       id="path7178" />
    <path
       style="fill:#909087;fill-opacity:1;stroke:#909087;stroke-width:2;stroke-linecap:butt;stroke-linejoin:round;stroke-miterlimit:4;stroke-dasharray:none;stroke-opacity:1"
       d="m 652.9985,713.82849 -34.884,103.912 -26.164,12.722 -34.884,103.913 -26.163,12.722 -34.884,103.91201 -122.095,59.371 265.785,-390.09001 z"
       id="path5223"
       sodipodi:nodetypes="ccccccccc" />
    <path
       style="fill:#909087;fill-opacity:1;stroke:#909087;stroke-width:2;stroke-linecap:butt;stroke-linejoin:round;stroke-miterlimit:4;stroke-dasharray:none;stroke-opacity:1"
       d="m 215.2925,1034.8425 13.29,-6.463 v -13.042 z"
       id="path7657" />
    <use
       x="0"
       y="0"
       xlink:href="#path7657"
       id="use7705"
       transform="translate(13.289001,-19.504004)"
       width="100%"
       height="100%"
       style="stroke:none;stroke-width:2;stroke-miterlimit:4;stroke-dasharray:none" />
    <use
       x="0"
       y="0"
       xlink:href="#use7705"
       id="use7711"
       transform="translate(13.289001,-19.505004)"
       width="100%"
       height="100%"
       style="stroke:none;stroke-width:2;stroke-miterlimit:4;stroke-dasharray:none" />
    <use
       x="0"
       y="0"
       xlink:href="#use7711"
       id="use7717"
       transform="translate(13.289001,-19.504004)"
       width="100%"
       height="100%"
       style="stroke:none;stroke-width:2;stroke-miterlimit:4;stroke-dasharray:none" />
    <use
       x="0"
       y="0"
       xlink:href="#use7717"
       id="use7723"
       transform="translate(13.290001,-19.505004)"
       width="100%"
       height="100%"
       style="stroke:none;stroke-width:2;stroke-miterlimit:4;stroke-dasharray:none" />
    <use
       x="0"
       y="0"
       xlink:href="#use7723"
       id="use7729"
       transform="translate(13.289001,-19.504004)"
       width="100%"
       height="100%"
       style="stroke:none;stroke-width:2;stroke-miterlimit:4;stroke-dasharray:none" />
    <use
       x="0"
       y="0"
       xlink:href="#use7729"
       id="use7735"
       transform="translate(13.289001,-19.505004)"
       width="100%"
       height="100%"
       style="stroke:none;stroke-width:2;stroke-miterlimit:4;stroke-dasharray:none" />
    <use
       x="0"
       y="0"
       xlink:href="#use7735"
       id="use7741"
       transform="translate(13.289001,-19.504004)"
       width="100%"
       height="100%"
       style="stroke:none;stroke-width:2;stroke-miterlimit:4;stroke-dasharray:none" />
    <use
       x="0"
       y="0"
       xlink:href="#use7741"
       id="use7747"
       transform="translate(13.289001,-19.505004)"
       width="100%"
       height="100%"
       style="stroke:none;stroke-width:2;stroke-miterlimit:4;stroke-dasharray:none" />
    <use
       x="0"
       y="0"
       xlink:href="#use7747"
       id="use7753"
       transform="translate(13.290001,-19.504004)"
       width="100%"
       height="100%"
       style="stroke:none;stroke-width:2;stroke-miterlimit:4;stroke-dasharray:none" />
    <use
       x="0"
       y="0"
       xlink:href="#use7753"
       id="use7759"
       transform="translate(13.289001,-19.505004)"
       width="100%"
       height="100%"
       style="stroke:none;stroke-width:2;stroke-miterlimit:4;stroke-dasharray:none" />
    <use
       x="0"
       y="0"
       xlink:href="#use7705"
       id="use7765"
       transform="translate(132.893,-195.046)"
       width="100%"
       height="100%"
       style="stroke:none;stroke-width:2;stroke-miterlimit:4;stroke-dasharray:none" />
    <use
       x="0"
       y="0"
       xlink:href="#use7711"
       id="use7771"
       transform="translate(132.893,-195.046)"
       width="100%"
       height="100%"
       style="stroke:none;stroke-width:2;stroke-miterlimit:4;stroke-dasharray:none" />
    <use
       x="0"
       y="0"
       xlink:href="#use7717"
       id="use7777"
       transform="translate(132.893,-195.046)"
       width="100%"
       height="100%"
       style="stroke:none;stroke-width:2;stroke-miterlimit:4;stroke-dasharray:none" />
    <use
       x="0"
       y="0"
       xlink:href="#use7723"
       id="use7783"
       transform="translate(132.893,-195.046)"
       width="100%"
       height="100%"
       style="stroke:none;stroke-width:2;stroke-miterlimit:4;stroke-dasharray:none" />
    <use
       x="0"
       y="0"
       xlink:href="#use7729"
       id="use7789"
       transform="translate(132.893,-195.046)"
       width="100%"
       height="100%"
       style="stroke:none;stroke-width:2;stroke-miterlimit:4;stroke-dasharray:none" />
    <use
       x="0"
       y="0"
       xlink:href="#use7735"
       id="use7795"
       transform="translate(132.893,-195.046)"
       width="100%"
       height="100%"
       style="stroke:none;stroke-width:2;stroke-miterlimit:4;stroke-dasharray:none" />
    <use
       x="0"
       y="0"
       xlink:href="#use7741"
       id="use7801"
       transform="translate(132.893,-195.046)"
       width="100%"
       height="100%"
       style="stroke:none;stroke-width:2;stroke-miterlimit:4;stroke-dasharray:none" />
    <use
       x="0"
       y="0"
       xlink:href="#use7747"
       id="use7807"
       transform="translate(132.893,-195.046)"
       width="100%"
       height="100%"
       style="stroke:none;stroke-width:2;stroke-miterlimit:4;stroke-dasharray:none" />
    <use
       x="0"
       y="0"
       xlink:href="#use7751"
       id="use7811"
       transform="translate(132.893,-195.046)"
       width="100%"
       height="100%"
       style="stroke:none;stroke-width:2;stroke-miterlimit:4;stroke-dasharray:none" />
    <path
       style="fill:#f7af5c;fill-opacity:1;stroke:#f7af5c;stroke-width:2;stroke-linecap:butt;stroke-linejoin:round;stroke-miterlimit:4;stroke-dasharray:none;stroke-opacity:1"
       d="m 675.2285,527.68749 23.853,-11.599 12.529,5.966 -10.692,17.866 z"
       id="path2939" />
    <use
       x="0"
       y="0"
       xlink:href="#use7753"
       id="use7813"
       transform="translate(132.893,-195.046)"
       width="100%"
       height="100%"
       style="stroke:none;stroke-width:2;stroke-miterlimit:4;stroke-dasharray:none" />
    <path
       style="fill:#e09e53;fill-opacity:1;stroke:#e09e53;stroke-width:2;stroke-linecap:butt;stroke-linejoin:round;stroke-miterlimit:4;stroke-dasharray:none;stroke-opacity:1"
       d="m 699.0815,371.17249 v 144.916 l 12.529,5.966 36.31,-60.673 69.564,-33.827 z"
       id="path2974" />
    <path
       style="fill:#909087;fill-opacity:1;stroke:#909087;stroke-width:2;stroke-linecap:butt;stroke-linejoin:round;stroke-miterlimit:4;stroke-dasharray:none;stroke-opacity:1"
       d="m 1174.9955,1012.9535 v 13.042 l 13.429,6.395 z"
       id="path8550" />
    <use
       x="0"
       y="0"
       xlink:href="#path8550"
       id="use8951"
       transform="translate(-13.427999,-19.437004)"
       width="100%"
       height="100%"
       style="stroke:none;stroke-width:2;stroke-miterlimit:4;stroke-dasharray:none" />
    <use
       x="0"
       y="0"
       xlink:href="#use8951"
       id="use8957"
       transform="translate(-13.428999,-19.438004)"
       width="100%"
       height="100%"
       style="stroke:none;stroke-width:2;stroke-miterlimit:4;stroke-dasharray:none" />
    <use
       x="0"
       y="0"
       xlink:href="#use8951"
       id="use8963"
       transform="translate(-26.858999,-38.874004)"
       width="100%"
       height="100%"
       style="stroke:none;stroke-width:2;stroke-miterlimit:4;stroke-dasharray:none" />
    <use
       x="0"
       y="0"
       xlink:href="#use8957"
       id="use8969"
       transform="translate(-26.858999,-38.874004)"
       width="100%"
       height="100%"
       style="stroke:none;stroke-width:2;stroke-miterlimit:4;stroke-dasharray:none" />
    <use
       x="0"
       y="0"
       xlink:href="#use8963"
       id="use8975"
       transform="translate(-26.857999,-38.875004)"
       width="100%"
       height="100%"
       style="stroke:none;stroke-width:2;stroke-miterlimit:4;stroke-dasharray:none" />
    <use
       x="0"
       y="0"
       xlink:href="#use8969"
       id="use8981"
       transform="translate(-26.857999,-38.875004)"
       width="100%"
       height="100%"
       style="stroke:none;stroke-width:2;stroke-miterlimit:4;stroke-dasharray:none" />
    <use
       x="0"
       y="0"
       xlink:href="#use8963"
       id="use8987"
       transform="translate(-53.715999,-77.75)"
       width="100%"
       height="100%"
       style="stroke:none;stroke-width:2;stroke-miterlimit:4;stroke-dasharray:none" />
    <use
       x="0"
       y="0"
       xlink:href="#use8969"
       id="use8993"
       transform="translate(-53.715999,-77.75)"
       width="100%"
       height="100%"
       style="stroke:none;stroke-width:2;stroke-miterlimit:4;stroke-dasharray:none" />
    <use
       x="0"
       y="0"
       xlink:href="#use8975"
       id="use8999"
       transform="translate(-53.715999,-77.75)"
       width="100%"
       height="100%"
       style="stroke:none;stroke-width:2;stroke-miterlimit:4;stroke-dasharray:none" />
    <path
       style="fill:#f5f5e4;fill-opacity:1;stroke:#f5f5e4;stroke-width:2;stroke-linecap:butt;stroke-linejoin:round;stroke-miterlimit:4;stroke-dasharray:none;stroke-opacity:1"
       d="m 1017.5905,647.03949 85.69,40.805 -88.287,42.931 -13.159,-19.047 48.844,-23.751 z"
       id="path12164" />
    <path
       style="fill:#909087;fill-opacity:1;stroke:#909087;stroke-width:2;stroke-linecap:butt;stroke-linejoin:round;stroke-miterlimit:4;stroke-dasharray:none;stroke-opacity:1"
       d="m 749.4345,713.58549 35.252,103.735 26.439,12.59 35.251,103.736 26.438,12.589 35.252,103.73601 123.379,58.753 -268.581,-388.74501 z"
       id="path5429" />
    <use
       x="0"
       y="0"
       xlink:href="#use8981"
       id="use9005"
       transform="translate(-53.715999,-77.75)"
       width="100%"
       height="100%"
       style="stroke:none;stroke-width:2;stroke-miterlimit:4;stroke-dasharray:none" />
    <use
       x="0"
       y="0"
       xlink:href="#use8987"
       id="use9011"
       transform="translate(-53.716999,-77.748)"
       width="100%"
       height="100%"
       style="stroke:none;stroke-width:2;stroke-miterlimit:4;stroke-dasharray:none" />
    <use
       x="0"
       y="0"
       xlink:href="#use8993"
       id="use9017"
       transform="translate(-53.716999,-77.748)"
       width="100%"
       height="100%"
       style="stroke:none;stroke-width:2;stroke-miterlimit:4;stroke-dasharray:none" />
    <use
       x="0"
       y="0"
       xlink:href="#use8999"
       id="use9023"
       transform="translate(-53.716999,-77.748)"
       width="100%"
       height="100%"
       style="stroke:none;stroke-width:2;stroke-miterlimit:4;stroke-dasharray:none" />
    <use
       x="0"
       y="0"
       xlink:href="#use9005"
       id="use9029"
       transform="translate(-53.716999,-77.748)"
       width="100%"
       height="100%"
       style="stroke:none;stroke-width:2;stroke-miterlimit:4;stroke-dasharray:none" />
    <use
       x="0"
       y="0"
       xlink:href="#use9011"
       id="use9035"
       transform="translate(-53.716999,-77.748)"
       width="100%"
       height="100%"
       style="stroke:none;stroke-width:2;stroke-miterlimit:4;stroke-dasharray:none" />
    <use
       x="0"
       y="0"
       xlink:href="#use9017"
       id="use9041"
       transform="translate(-53.716999,-77.748)"
       width="100%"
       height="100%"
       style="stroke:none;stroke-width:2;stroke-miterlimit:4;stroke-dasharray:none" />
    <use
       x="0"
       y="0"
       xlink:href="#use9023"
       id="use9047"
       transform="translate(-53.716999,-77.748)"
       width="100%"
       height="100%"
       style="stroke:none;stroke-width:2;stroke-miterlimit:4;stroke-dasharray:none" />
    <use
       x="0"
       y="0"
       xlink:href="#use9029"
       id="use9053"
       transform="translate(-53.716999,-77.748)"
       width="100%"
       height="100%"
       style="stroke:none;stroke-width:2;stroke-miterlimit:4;stroke-dasharray:none" />
    <use
       x="0"
       y="0"
       xlink:href="#use9053"
       id="use9059"
       transform="translate(-13.428999,-19.437004)"
       width="100%"
       height="100%"
       style="stroke:none;stroke-width:2;stroke-miterlimit:4;stroke-dasharray:none" />
    <path
       style="fill:#b58043;fill-opacity:1;stroke:#b58043;stroke-width:2;stroke-linecap:butt;stroke-linejoin:round;stroke-miterlimit:4;stroke-dasharray:none;stroke-opacity:1"
       d="m 700.9185,539.92049 47.002,-78.539 174.421,-84.815 -47.002,78.538 z"
       id="path2770" />
    <path
       style="fill:#e09e53;fill-opacity:1;stroke:#e09e53;stroke-width:2;stroke-linecap:butt;stroke-linejoin:round;stroke-miterlimit:4;stroke-dasharray:none;stroke-opacity:1"
       d="m 477.6585,332.68649 47.002,123.302 174.421,-84.816 -47.001,-123.302 z"
       id="path3113" />
    <path
       style="fill:#b58043;fill-opacity:1;stroke:#b58043;stroke-width:2;stroke-linecap:butt;stroke-linejoin:round;stroke-miterlimit:4;stroke-dasharray:none;stroke-opacity:1"
       d="m 524.6605,455.98849 174.421,-84.816 v 144.916 l -23.853,11.599 z"
       id="path2871" />
    <path
       style="fill:#e09e53;fill-opacity:1;stroke:#e09e53;stroke-width:2;stroke-linecap:butt;stroke-linejoin:round;stroke-miterlimit:4;stroke-dasharray:none;stroke-opacity:1"
       d="m 524.6605,455.98849 v 144.915 l 176.258,83.932 v -144.915 z"
       id="path2370"
       sodipodi:nodetypes="ccccc" />
    <path
       style="fill:#b58043;fill-opacity:1;stroke:#b58043;stroke-width:2;stroke-linecap:butt;stroke-linejoin:round;stroke-miterlimit:4;stroke-dasharray:none;stroke-opacity:1"
       d="m 700.9185,539.92049 174.421,-84.816 v 144.916 l -174.421,84.815 z"
       id="path2628" />
    <path
       style="fill:#adada1;fill-opacity:1;stroke:#adada1;stroke-width:2;stroke-linecap:butt;stroke-linejoin:round;stroke-miterlimit:4;stroke-dasharray:none;stroke-opacity:1"
       d="m 980.5425,601.20449 70.136,86.773 -48.844,23.751 -55.828,-80.805 -13.429,-6.395 z"
       id="path12096" />
    <path
       style="fill:#adada1;fill-opacity:1;stroke:#adada1;stroke-width:2;stroke-linecap:butt;stroke-linejoin:round;stroke-miterlimit:4;stroke-dasharray:none;stroke-opacity:1"
       d="m 1103.2805,687.84449 70.135,86.773 -95.91,46.638 -62.512,-90.48 z"
       id="path12265" />
  </g>
</svg>
