<?xml version="1.0" encoding="UTF-8" standalone="no"?>
<svg
   version="1.1"
   width="1400"
   height="1400"
   id="svg700"
   sodipodi:docname="small.svg"
   inkscape:version="1.1.1 (3bf5ae0d25, 2021-09-20)"
   inkscape:export-xdpi="4.3899999"
   inkscape:export-ydpi="4.3899999"
   xmlns:inkscape="http://www.inkscape.org/namespaces/inkscape"
   xmlns:sodipodi="http://sodipodi.sourceforge.net/DTD/sodipodi-0.dtd"
   xmlns="http://www.w3.org/2000/svg"
   xmlns:svg="http://www.w3.org/2000/svg">
  <defs
     id="defs704" />
  <sodipodi:namedview
     id="namedview702"
     pagecolor="#ffffff"
     bordercolor="#666666"
     borderopacity="1.0"
     inkscape:pageshadow="2"
     inkscape:pageopacity="0"
     inkscape:pagecheckerboard="true"
     showgrid="false"
     inkscape:zoom="0.03125"
     inkscape:cx="-5776"
     inkscape:cy="7040"
     inkscape:window-width="1706"
     inkscape:window-height="898"
     inkscape:window-x="0"
     inkscape:window-y="0"
     inkscape:window-maximized="1"
     inkscape:current-layer="layer1" />
  <g
     inkscape:groupmode="layer"
     id="layer3"
     inkscape:label="border">
    <path
       style="display:inline;fill:#adada1;fill-opacity:1;stroke:#52524c;stroke-width:30;stroke-linecap:round;stroke-linejoin:round;stroke-miterlimit:4;stroke-dasharray:none;stroke-opacity:1"
       d="m 524.6605,539.7854 -339.249,167.315 69.14713,33.49154 -150.71213,124.91946 145.46,69.266 -60.452,88.725 185.07,88.128 122.095,-59.371 207.102,98.62 204.945,-99.658 123.379,58.753 183.142,-89.057 -61.41,-88.886 142.976,-69.524 -151.646,-125.587 66.638,-32.404 -265.784,-131.606 -70.022,-33.343"
       id="path27134"
       sodipodi:nodetypes="cccccccccccccccccc" />
  </g>
  <g
     inkscape:groupmode="layer"
     id="layer1"
     inkscape:label="shape"
     style="display:inline">
    <path
       id="path9098"
       style="fill:#cfcfc0;fill-opacity:1;stroke:#cfcfc0;stroke-width:3;stroke-linecap:butt;stroke-linejoin:round;stroke-miterlimit:4;stroke-dasharray:none;stroke-opacity:1"
       d="M 453.99414 574.14844 L 185.41211 707.09961 L 254.54297 740.58398 L 103.8457 865.51172 L 249.30664 934.77734 L 454.63867 633.41211 L 467.92773 626.94922 L 429.83008 608.80859 L 467.42383 580.54297 L 453.99414 574.14844 z " />
    <path
       id="path12978"
       style="fill:#adada1;fill-opacity:1;stroke:#adada1;stroke-width:3;stroke-linecap:butt;stroke-linejoin:round;stroke-miterlimit:4;stroke-dasharray:none;stroke-opacity:1"
       d="M 945.36133 572.91016 L 932.73633 579.68945 L 980.54297 602.45508 L 932.57812 625.7793 L 946.00586 632.17383 L 1153.1777 932.03125 L 1296.1543 862.50781 L 1142.6777 736.04883 L 1144.5078 736.91992 L 1211.1445 704.51562 L 945.36133 572.91016 z " />
    <path
       style="fill:#adada1;fill-opacity:1;stroke:#adada1;stroke-width:3;stroke-linecap:butt;stroke-linejoin:round;stroke-miterlimit:4;stroke-dasharray:none;stroke-opacity:1"
       d="m 749.4345,714.8354 158.632,336.386 -204.945,99.658 -1.652,-412.72 z"
       id="path6010"
       sodipodi:nodetypes="ccccc" />
    <path
       style="fill:#cfcfc0;fill-opacity:1;stroke:#cfcfc0;stroke-width:3;stroke-linecap:butt;stroke-linejoin:round;stroke-miterlimit:4;stroke-dasharray:none;stroke-opacity:1"
       d="m 652.9985,715.0784 48.471,23.081 1.652,412.72 -207.102,-98.62 z"
       id="path5909"
       sodipodi:nodetypes="ccccc" />
    <path
       style="fill:#909087;fill-opacity:1;stroke:#909087;stroke-width:3;stroke-linecap:butt;stroke-linejoin:round;stroke-miterlimit:4;stroke-dasharray:none;stroke-opacity:1"
       d="m 749.4345,714.8354 158.632,336.386 123.379,58.753 -268.581,-388.745 z"
       id="path5429"
       sodipodi:nodetypes="ccccc" />
    <path
       style="fill:#909087;fill-opacity:1;stroke:#909087;stroke-width:3;stroke-linecap:butt;stroke-linejoin:round;stroke-miterlimit:4;stroke-dasharray:none;stroke-opacity:1"
       d="m 652.9985,715.0784 -156.979,337.181 -122.095,59.371 265.785,-390.09 z"
       id="path5223"
       sodipodi:nodetypes="ccccc" />
    <path
       id="path6943"
       style="fill:#f5f5e4;fill-opacity:1;stroke:#f5f5e4;stroke-width:3;stroke-linecap:butt;stroke-linejoin:round;stroke-miterlimit:4;stroke-dasharray:none;stroke-opacity:1"
       d="M 875.33984 539.56836 L 875.33984 601.26953 L 700.91797 686.08594 L 524.66016 602.1543 L 524.66016 539.78516 L 453.99414 574.14844 L 467.42383 580.54297 L 419.45703 603.86914 L 467.92773 626.94922 L 454.63867 633.41211 L 188.85547 1023.502 L 373.92383 1111.6309 L 639.70898 721.54102 L 652.99805 715.07812 L 701.46875 738.16016 L 749.43359 714.83594 L 762.86523 721.22852 L 1031.4453 1109.9746 L 1214.5879 1020.918 L 946.00586 632.17383 L 932.57812 625.7793 L 980.54297 602.45508 L 932.73633 579.68945 L 945.36133 572.91016 L 875.33984 539.56836 z " />
    <path
       style="display:inline;fill:#e09e53;fill-opacity:1;stroke:#593f21;stroke-width:30;stroke-linecap:butt;stroke-linejoin:round;stroke-miterlimit:4;stroke-dasharray:none;stroke-opacity:1"
       d="m 652.0805,249.1204 -174.422,84.816 47.002,123.302 v 144.915 l 176.258,83.932 174.421,-84.815 v -144.916 l 47.002,-78.538 -104.857,50.988 -118.403,-56.382 z"
       id="path25582" />
    <path
       style="fill:#f7af5c;fill-opacity:1;stroke:#f7af5c;stroke-width:3;stroke-linecap:butt;stroke-linejoin:round;stroke-miterlimit:4;stroke-dasharray:none;stroke-opacity:1"
       d="m 675.2285,528.9374 23.853,-11.599 12.529,5.966 -10.692,17.866 z"
       id="path2939" />
    <path
       style="fill:#e09e53;fill-opacity:1;stroke:#e09e53;stroke-width:3;stroke-linecap:butt;stroke-linejoin:round;stroke-miterlimit:4;stroke-dasharray:none;stroke-opacity:1"
       d="m 699.0815,372.4224 v 144.916 l 12.529,5.966 36.31,-60.673 69.564,-33.827 z"
       id="path2974" />
    <path
       style="fill:#e09e53;fill-opacity:1;stroke:#e09e53;stroke-width:3;stroke-linecap:butt;stroke-linejoin:round;stroke-miterlimit:4;stroke-dasharray:none;stroke-opacity:1"
       d="m 477.6585,333.9364 47.002,123.302 174.421,-84.816 -47.001,-123.302 z"
       id="path3113" />
    <path
       style="fill:#b58043;fill-opacity:1;stroke:#b58043;stroke-width:3;stroke-linecap:butt;stroke-linejoin:round;stroke-miterlimit:4;stroke-dasharray:none;stroke-opacity:1"
       d="m 524.6605,457.2384 174.421,-84.816 v 144.916 l -23.853,11.599 z"
       id="path2871" />
    <path
       style="fill:#e09e53;fill-opacity:1;stroke:#e09e53;stroke-width:3;stroke-linecap:butt;stroke-linejoin:round;stroke-miterlimit:4;stroke-dasharray:none;stroke-opacity:1"
       d="m 524.6605,457.2384 v 144.915 l 176.258,83.932 v -144.915 z"
       id="path2370"
       sodipodi:nodetypes="ccccc" />
    <path
       style="fill:#b58043;fill-opacity:1;stroke:#b58043;stroke-width:3;stroke-linecap:butt;stroke-linejoin:round;stroke-miterlimit:4;stroke-dasharray:none;stroke-opacity:1"
       d="m 700.9185,541.1704 47.002,-78.539 174.421,-84.815 -47.002,78.538 z"
       id="path2770" />
    <path
       style="fill:#b58043;fill-opacity:1;stroke:#b58043;stroke-width:3;stroke-linecap:butt;stroke-linejoin:round;stroke-miterlimit:4;stroke-dasharray:none;stroke-opacity:1"
       d="m 700.9185,541.1704 174.421,-84.816 v 144.916 l -174.421,84.815 z"
       id="path2628" />
  </g>
</svg>
