<?xml version="1.0" encoding="UTF-8" standalone="no"?>
<svg
   version="1.1"
   width="1400"
   height="1400"
   id="svg700"
   sodipodi:docname="tiny.svg"
   inkscape:version="1.1.1 (3bf5ae0d25, 2021-09-20)"
   inkscape:export-xdpi="2.1942856"
   inkscape:export-ydpi="2.1942856"
   xmlns:inkscape="http://www.inkscape.org/namespaces/inkscape"
   xmlns:sodipodi="http://sodipodi.sourceforge.net/DTD/sodipodi-0.dtd"
   xmlns="http://www.w3.org/2000/svg"
   xmlns:svg="http://www.w3.org/2000/svg">
  <defs
     id="defs704" />
  <sodipodi:namedview
     id="namedview702"
     pagecolor="#ffffff"
     bordercolor="#666666"
     borderopacity="1.0"
     inkscape:pageshadow="2"
     inkscape:pageopacity="0"
     inkscape:pagecheckerboard="true"
     showgrid="false"
     inkscape:zoom="0.43480343"
     inkscape:cx="776.21282"
     inkscape:cy="998.1522"
     inkscape:window-width="1706"
     inkscape:window-height="898"
     inkscape:window-x="0"
     inkscape:window-y="0"
     inkscape:window-maximized="1"
     inkscape:current-layer="layer1" />
  <g
     inkscape:groupmode="layer"
     id="layer3"
     inkscape:label="border">
    <path
       style="display:inline;fill:#adada1;fill-opacity:1;stroke:#52524c;stroke-width:60;stroke-linecap:round;stroke-linejoin:round;stroke-miterlimit:4;stroke-dasharray:none;stroke-opacity:1"
       d="m 524.66049,553.567 -105.203,50.3013 -315.611,261.643 145.46,69.266 -60.452,88.725 185.07,88.128 122.095,-59.371 207.102,98.62 204.945,-99.658 123.37901,58.753 183.142,-89.057 -61.41,-88.886 142.976,-69.524 -315.61101,-260.053 -105.203,-48.8873"
       id="path27134"
       sodipodi:nodetypes="ccccccccccccccc" />
  </g>
  <g
     inkscape:groupmode="layer"
     id="layer1"
     inkscape:label="shape"
     style="display:inline">
    <path
       style="fill:#cfcfc0;fill-opacity:1;stroke:#cfcfc0;stroke-width:3;stroke-linecap:butt;stroke-linejoin:round;stroke-miterlimit:4;stroke-dasharray:none;stroke-opacity:1"
       d="m 419.45749,603.8683 -315.611,261.643 145.46,69.266 205.332,-301.366 13.29,-6.462 z"
       id="path9530"
       sodipodi:nodetypes="cccccc" />
    <path
       style="fill:#adada1;fill-opacity:1;stroke:#adada1;stroke-width:3;stroke-linecap:butt;stroke-linejoin:round;stroke-miterlimit:4;stroke-dasharray:none;stroke-opacity:1"
       d="m 749.43449,714.8353 158.632,336.386 -204.945,99.658 -1.652,-412.72 z"
       id="path6010"
       sodipodi:nodetypes="ccccc" />
    <path
       style="fill:#cfcfc0;fill-opacity:1;stroke:#cfcfc0;stroke-width:3;stroke-linecap:butt;stroke-linejoin:round;stroke-miterlimit:4;stroke-dasharray:none;stroke-opacity:1"
       d="m 652.99849,715.0783 48.471,23.081 1.652,412.72 -207.102,-98.62 z"
       id="path5909"
       sodipodi:nodetypes="ccccc" />
    <path
       style="fill:#adada1;fill-opacity:1;stroke:#adada1;stroke-width:3;stroke-linecap:butt;stroke-linejoin:round;stroke-miterlimit:4;stroke-dasharray:none;stroke-opacity:1"
       d="m 980.54249,602.4543 315.61101,260.053 -142.976,69.524 -207.17101,-299.858 -13.429,-6.395 z"
       id="path12096"
       sodipodi:nodetypes="cccccc" />
    <path
       style="fill:#909087;fill-opacity:1;stroke:#909087;stroke-width:3;stroke-linecap:butt;stroke-linejoin:round;stroke-miterlimit:4;stroke-dasharray:none;stroke-opacity:1"
       d="m 749.43449,714.8353 158.632,336.386 123.37901,58.753 -268.58101,-388.745 z"
       id="path5429"
       sodipodi:nodetypes="ccccc" />
    <path
       id="path7110"
       style="fill:#f5f5e4;fill-opacity:1;stroke:#f5f5e4;stroke-width:3;stroke-linecap:butt;stroke-linejoin:round;stroke-miterlimit:4;stroke-dasharray:none;stroke-opacity:1"
       d="M 946.00586 632.17383 L 919.8418 644.89453 L 789.02734 708.50781 L 762.86523 721.22852 L 1031.4453 1109.9746 L 1057.6094 1097.252 L 1188.4258 1033.6406 L 1214.5879 1020.918 L 946.00586 632.17383 z " />
    <path
       style="fill:#909087;fill-opacity:1;stroke:#909087;stroke-width:3;stroke-linecap:butt;stroke-linejoin:round;stroke-miterlimit:4;stroke-dasharray:none;stroke-opacity:1"
       d="m 652.99849,715.0783 -156.979,337.181 -122.095,59.371 265.785,-390.09 z"
       id="path5223"
       sodipodi:nodetypes="ccccc" />
    <path
       style="fill:#f5f5e4;fill-opacity:1;stroke:#f5f5e4;stroke-width:3;stroke-linecap:butt;stroke-linejoin:round;stroke-miterlimit:4;stroke-dasharray:none;stroke-opacity:1"
       d="m 419.45749,603.8683 48.471,23.081 -13.29,6.462 185.071,88.129 13.289,-6.462 48.471,23.081 47.965,-23.324 13.43,6.394 183.142,-89.056 -13.429,-6.395 47.965,-23.324 -105.203,-48.887 v 47.703 l -174.421,84.815 -176.258,-83.932 V 553.567 Z"
       id="path1143"
       sodipodi:nodetypes="ccccccccccccccccc" />
    <path
       style="display:inline;fill:#e09e53;fill-opacity:1;stroke:#593f21;stroke-width:60;stroke-linecap:butt;stroke-linejoin:round;stroke-miterlimit:4;stroke-dasharray:none;stroke-opacity:1"
       d="m 652.08049,249.1203 -174.422,84.816 47.002,123.302 v 144.915 l 176.258,83.932 174.421,-84.815 v -144.916 l 47.002,-78.538 -104.857,50.988 -118.403,-56.382 z"
       id="path25582" />
    <path
       id="path7178"
       style="fill:#f5f5e4;fill-opacity:1;stroke:#f5f5e4;stroke-width:3;stroke-linecap:butt;stroke-linejoin:round;stroke-miterlimit:4;stroke-dasharray:none;stroke-opacity:1"
       d="M 454.63867 633.41211 L 188.85352 1023.502 L 215.29297 1036.0918 L 347.48633 1099.041 L 373.92383 1111.6309 L 639.70898 721.54102 L 613.26953 708.95117 L 481.07812 646.00195 L 454.63867 633.41211 z " />
    <path
       style="fill:#f7af5c;fill-opacity:1;stroke:#f7af5c;stroke-width:3;stroke-linecap:butt;stroke-linejoin:round;stroke-miterlimit:4;stroke-dasharray:none;stroke-opacity:1"
       d="m 675.22849,528.9373 23.853,-11.599 12.529,5.966 -10.692,17.866 z"
       id="path2939" />
    <path
       style="fill:#e09e53;fill-opacity:1;stroke:#e09e53;stroke-width:3;stroke-linecap:butt;stroke-linejoin:round;stroke-miterlimit:4;stroke-dasharray:none;stroke-opacity:1"
       d="m 699.08149,372.4223 v 144.916 l 12.529,5.966 36.31,-60.673 69.564,-33.827 z"
       id="path2974" />
    <path
       style="fill:#e09e53;fill-opacity:1;stroke:#e09e53;stroke-width:3;stroke-linecap:butt;stroke-linejoin:round;stroke-miterlimit:4;stroke-dasharray:none;stroke-opacity:1"
       d="m 477.65849,333.9363 47.002,123.302 174.421,-84.816 -47.001,-123.302 z"
       id="path3113" />
    <path
       style="fill:#b58043;fill-opacity:1;stroke:#b58043;stroke-width:3;stroke-linecap:butt;stroke-linejoin:round;stroke-miterlimit:4;stroke-dasharray:none;stroke-opacity:1"
       d="m 524.66049,457.2383 174.421,-84.816 v 144.916 l -23.853,11.599 z"
       id="path2871" />
    <path
       style="fill:#e09e53;fill-opacity:1;stroke:#e09e53;stroke-width:3;stroke-linecap:butt;stroke-linejoin:round;stroke-miterlimit:4;stroke-dasharray:none;stroke-opacity:1"
       d="m 524.66049,457.2383 v 144.915 l 176.258,83.932 v -144.915 z"
       id="path2370"
       sodipodi:nodetypes="ccccc" />
    <path
       style="fill:#b58043;fill-opacity:1;stroke:#b58043;stroke-width:3;stroke-linecap:butt;stroke-linejoin:round;stroke-miterlimit:4;stroke-dasharray:none;stroke-opacity:1"
       d="m 700.91849,541.1703 47.002,-78.539 174.421,-84.815 -47.002,78.538 z"
       id="path2770" />
    <path
       style="fill:#b58043;fill-opacity:1;stroke:#b58043;stroke-width:3;stroke-linecap:butt;stroke-linejoin:round;stroke-miterlimit:4;stroke-dasharray:none;stroke-opacity:1"
       d="m 700.91849,541.1703 174.421,-84.816 v 144.916 l -174.421,84.815 z"
       id="path2628" />
  </g>
</svg>
